# xmcd
#
# Track frame offsets:
#	150
#	23284
#	49961
#	68221
#	82948
#	102219
#	117038
#	136366
#	156377
#	178288
#	199337
#	219921
#	243327
#	257783
#	276663
#	296243
#
# Disc length: 4150 seconds
#
# Revision: 0
# Processed by: cddbd v1.5.2PL0 Copyright (c) Steve Scherf et al.
# Submitted via: audiograbber 1.83.01
#
DISCID=f1103410
DTITLE=Aretha Frankllin - Jewels in the crown - All star duetts with the quenn
DYEAR=2007
DGENRE=soul
TTITLE0=Jumpin´jack Flash(keith Richards)
TTITLE1=Sisters are doing it (Eurythmics)
TTITLE2=I knew you were waiting (George Mickael)
TTITLE3=What now my love(Frank Sinatra)
TTITLE4=Put you up on game(Fantasia)
TTITLE5=What yáll come to do(John Legend)
TTITLE6=Never gonna break my faith(Mary J. Blige)
TTITLE7=Through the storm(Elton John)
TTITLE8=It isn´t, it wasn`t, it ain´t never gonna be(Whitney Houston)
TTITLE9=You make me feel like a natural woman(Bonnie Raitt/Gloria Estefan)
TTITLE10=Doctor´s order(Luther Vandross)
TTITLE11=Ever changing time(Michael McDonald)
TTITLE12=Chain of fools(Mariah Carey)
TTITLE13=Don´t waste your time(Mary J. Blige)
TTITLE14=Love hurt all the way(George Benson)
TTITLE15=Nessun dorma(The New York Recording Orchestra)
EXTD=
EXTT0=
EXTT1=
EXTT2=
EXTT3=
EXTT4=
EXTT5=
EXTT6=
EXTT7=
EXTT8=
EXTT9=
EXTT10=
EXTT11=
EXTT12=
EXTT13=
EXTT14=
EXTT15=
PLAYORDER=
